# xmcd
#
# Track frame offsets: 
#        150
#        20364
#        35889
#        55570
#        70870
#        91223
#        116901
#        130501
#        154501
#        168582
#        186357
#        202702
#        219764
#        241589
#
# Disc length: 3390 seconds
#
# Revision: 0
# Processed by: cddbd v1.5.2PL0 Copyright (c) Steve Scherf et al.
# Submitted via: ExactAudioCopyFreeDBPlugin 1.0
#
DISCID=ae0d3c0e
DTITLE=Scott Bradlee and Postmodern Jukebox - Fake Blues
DYEAR=2017
DGENRE=Blues
TTITLE0=Scott Bradlee's Postmodern Jukebox feat. Casey Abrams - What I
TTITLE0=s Love
TTITLE1=Scott Bradlee's Postmodern Jukebox feat. Noah Guthrie - Sledge
TTITLE1=hammer
TTITLE2=Scott Bradlee's Postmodern Jukebox feat. Thia Megia - Feel Goo
TTITLE2=d Inc.
TTITLE3=Scott Bradlee's Postmodern Jukebox feat. Puddles Pity Party - 
TTITLE3=All The Small Things
TTITLE4=Scott Bradlee's Postmodern Jukebox feat. DeAndre Brackensick /
TTITLE4=Side to Side
TTITLE5=Scott Bradlee's Postmodern Jukebox feat. Maiya Sykes - Don't L
TTITLE5=ook Back in Anger
TTITLE6=Scott Bradlee's Postmodern Jukebox feat. Kelley Jakle - Poker 
TTITLE6=Face
TTITLE7=Scott Bradlee's Postmodern Jukebox feat. Sara Niemietz - I Wan
TTITLE7=t You to Want Me
TTITLE8=Scott Bradlee's Postmodern Jukebox feat. Ariana Savalas - Thon
TTITLE8=g Song
TTITLE9=Scott Bradlee's Postmodern Jukebox feat. Belle Jewel - Spiderw
TTITLE9=ebs
TTITLE10=Scott Bradlee's Postmodern Jukebox feat. Addie Hamilton - Sun
TTITLE10=day Morning
TTITLE11=Scott Bradlee's Postmodern Jukebox feat. Ada Pasternak - ... 
TTITLE11=Baby One More Time
TTITLE12=Scott Bradlee's Postmodern Jukebox feat. Caroline Baran - Not
TTITLE12=hing Else Matters
TTITLE13=Scott Bradlee's Postmodern Jukebox feat. Mike Cottone and Adam 
TTITLE13=Kubota - Harry Potter Jazz Variations
EXTD=
EXTT0=
EXTT1=
EXTT2=
EXTT3=
EXTT4=
EXTT5=
EXTT6=
EXTT7=
EXTT8=
EXTT9=
EXTT10=
EXTT11=
EXTT12=
EXTT13=
PLAYORDER=
